<?xml version="1.0" encoding="utf-8"?>
<!-- Generator: Adobe Illustrator 16.0.0, SVG Export Plug-In . SVG Version: 6.00 Build 0)  -->
<!DOCTYPE svg PUBLIC "-//W3C//DTD SVG 1.1//EN" "http://www.w3.org/Graphics/SVG/1.1/DTD/svg11.dtd">
<svg version="1.1" id="Capa_1" xmlns="http://www.w3.org/2000/svg" xmlns:xlink="http://www.w3.org/1999/xlink" x="0px" y="0px"
	 width="400px" height="25px" viewBox="0 0 400 25" enable-background="new 0 0 400 25" xml:space="preserve">
<g>
	<g>
		<g>
			<path fill="#EEEED6" d="M125.528,12.469c1.607-0.71,2.719-1.473,3.35-2.288c0.632-0.809,0.943-1.825,0.943-3.042
				c0-1.509-0.465-2.748-1.404-3.708c-1.56-1.603-4.332-2.408-8.316-2.408h-19.384v0.825l1.238,0.07c1.49,0,2.44,0.15,2.854,0.449
				c0.615,0.455,0.925,1.557,0.925,3.296v13.679c0,1.553-0.184,2.55-0.551,2.984c-0.455,0.554-1.577,0.826-3.364,0.826h-1.102v0.793
				h19.825c4.059,0,6.851-0.662,8.386-1.994c1.013-0.868,1.515-2.129,1.515-3.776C130.444,15.396,128.806,13.495,125.528,12.469z
				 M113.808,1.848h1.409c2.362,0,4.023,0.458,4.985,1.375c0.78,0.756,1.17,1.984,1.17,3.677c0,2.202-0.55,3.688-1.651,4.468
				c-0.66,0.481-1.732,0.721-3.196,0.721c-0.206,0-0.488,0-0.861,0h-1.856V1.848z M113.808,23.152V12.881l1.483,0.066
				c2.405,0,4.006,0.289,4.811,0.859c0.935,0.664,1.405,2.041,1.405,4.129c0,1.898-0.428,3.239-1.29,4.035
				c-0.856,0.784-2.213,1.182-4.071,1.182H113.808z"/>
			<path fill="#EEEED6" d="M25.874,16.039c-1.187,2.457-2.721,4.336-4.605,5.655c-1.877,1.319-3.925,1.975-6.148,1.975
				c-2.134,0-3.69-1.122-4.672-3.368c-0.831-1.852-1.237-4.443-1.237-7.766c0-7.374,1.912-11.067,5.735-11.067
				c2.476,0,4.665,0.979,6.563,2.923c1.419,1.445,2.715,3.493,3.885,6.154l0.549-0.143l-0.447-9.554h-0.617
				c-0.595,0.598-1.067,0.999-1.404,1.204c-0.48,0.298-1.013,0.446-1.589,0.446c-0.087,0-0.227-0.012-0.409-0.032
				c-0.37,0-1.478-0.361-3.351-1.082c-1.868-0.722-3.488-1.084-4.866-1.084c-3.914,0-7.104,1.128-9.568,3.386
				C1.23,5.943,0,8.836,0,12.367c0,3.55,1.317,6.493,3.949,8.83c2.636,2.333,5.903,3.502,9.797,3.502
				c2.634,0,5.026-0.662,7.182-1.993c1.557-0.962,2.931-2.24,4.125-3.846c0.668-0.873,1.152-1.697,1.478-2.478L25.874,16.039z"/>
			<path fill="#EEEED6" d="M177.036,3.703c-2.951-2.267-6.834-3.402-11.644-3.402c-4.652,0-8.355,1.184-11.103,3.543
				c-2.584,2.22-3.882,5.074-3.882,8.557c0,3.71,1.444,6.685,4.329,8.93c2.891,2.245,6.808,3.369,11.755,3.369
				c4.855,0,8.625-1.169,11.302-3.502c2.453-2.152,3.68-4.967,3.68-8.421C181.472,8.998,179.997,5.974,177.036,3.703z
				 M166.147,23.874c-2.154,0-3.802-1.338-4.946-4.023c-0.9-2.075-1.346-4.554-1.346-7.42c0-3.712,0.653-6.582,1.96-8.624
				c1.147-1.807,2.611-2.719,4.397-2.719c1.905,0,3.387,1.009,4.452,3.014c1.067,2.004,1.6,4.788,1.6,8.367
				c0,3.664-0.532,6.48-1.6,8.454C169.6,22.892,168.09,23.874,166.147,23.874z"/>
			<path fill="#EEEED6" d="M131.373,1.848h1.094c1.472,0,2.489,0.237,3.062,0.705c0.569,0.467,0.857,1.504,0.857,3.11v13.679
				c0,1.553-0.182,2.55-0.549,2.984c-0.483,0.554-1.603,0.826-3.371,0.826h-1.094v0.793h18.106v-0.793c0,0-1.604,0-1.991,0
				c-1.101,0-1.847-0.183-2.237-0.548c-0.526-0.507-0.79-1.594-0.79-3.263V5.663c0-1.672,0.323-2.763,0.964-3.263
				c0.457-0.371,1.443-0.553,2.955-0.553h1.099V1.022h-18.106V1.848z"/>
			<path fill="#EEEED6" d="M79.652,15.318L71.029,1.022H57.697v0.825h0.963c2.059,0,3.547,0.661,4.462,1.996v13.129
				c0,4.032-1.766,6.094-5.308,6.176c-1.669-0.037-2.85-0.502-3.55-1.404c-0.189-0.225-0.623-0.958-1.311-2.2L42.2,0.405h-0.825
				l-9.519,16.838c-1.216,2.108-2.339,3.618-3.369,4.534c-1.028,0.918-2.14,1.375-3.336,1.375v0.793h12.51v-0.793
				c-1.033-0.091-1.809-0.238-2.333-0.446c-1.583-0.66-2.456-1.959-2.614-3.882c-0.025-0.142,0-0.336,0.065-0.604
				c0.069-0.258,0.134-0.475,0.173-0.631h9.52l1.514,2.745c0.277,0.597,0.411,1.075,0.411,1.442c0,0.549-0.273,0.942-0.826,1.169
				c-0.336,0.14-0.803,0.206-1.371,0.206h-1.755v0.793h28.796v-0.793c-3.387,0-5.085-2.062-5.085-6.18V5.454l11.271,18.491h0.654
				L86.903,3.259v16.285c0,1.446-0.168,2.375-0.515,2.782c-0.458,0.554-1.593,0.826-3.4,0.826h-1.1v0.793h18.142v-0.793H98.93
				c-1.393,0-2.356-0.206-2.884-0.616c-0.688-0.53-1.031-1.59-1.031-3.194V5.526c0-1.375,0.249-2.332,0.737-2.869
				c0.495-0.54,1.553-0.81,3.178-0.81h1.101V1.022H87.042L79.652,15.318z M33.194,16.793l4.363-8.002l4.4,8.002H33.194z"/>
		</g>
		<g>
			<path fill="#EEEED6" d="M396.497,11.39c-1.732-1.058-3.92-1.786-6.572-2.191l-5.761-0.907c-2.625-0.409-4.062-0.643-4.311-0.709
				c-1.753-0.516-2.626-1.447-2.626-2.798c0-1.079,0.548-1.927,1.634-2.544c1.092-0.616,2.545-0.924,4.361-0.924
				c2.744,0,5.268,0.674,7.577,2.021c2.315,1.35,4.335,3.348,6.065,5.998h0.707v-8.46h-0.538l-4.01,3.064
				c-3.007-2.267-6.243-3.401-9.699-3.401c-2.986,0-5.484,0.757-7.495,2.264c-2.013,1.498-3.016,3.391-3.016,5.656
				c0,3.185,1.988,5.431,5.965,6.734c0.738,0.252,4.437,0.909,11.084,1.984c3.953,0.651,5.924,1.766,5.924,3.34
				c0,1.008-0.535,1.773-1.599,2.288c-1.065,0.52-2.567,0.776-4.497,0.776c-2.965,0-5.757-0.717-8.39-2.153
				c-2.895-1.573-5.217-3.839-6.972-6.808h-0.811v8.318h-0.269c-1.75,0-2.983-0.459-3.7-1.379c-0.183-0.227-0.612-0.942-1.285-2.155
				L357.727,0.643h-0.807l-9.332,16.505c-1.191,2.067-2.294,3.544-3.302,4.448c-1.013,0.896-2.098,1.344-3.27,1.344v0.776h12.262
				v-0.776c-1.009-0.092-1.776-0.237-2.29-0.437c-1.552-0.652-2.406-1.92-2.562-3.807c-0.02-0.134,0-0.329,0.068-0.587
				c0.068-0.255,0.123-0.466,0.167-0.625h9.333l1.48,2.693c0.271,0.588,0.405,1.059,0.405,1.418c0,0.54-0.268,0.919-0.809,1.14
				c-0.339,0.138-0.785,0.204-1.346,0.204h-1.717v0.776h17.51v0.169h0.811l4.414-3.267c0.378,0.335,0.773,0.674,1.179,1.006
				c1.053,0.769,2.258,1.391,3.604,1.854c1.861,0.653,3.945,0.983,6.233,0.983c3.234,0,5.748-0.683,7.543-2.043
				c1.798-1.356,2.697-3.184,2.697-5.475C400,14.656,398.83,12.808,396.497,11.39z M348.899,16.712l4.275-7.847l4.313,7.847H348.899
				z"/>
			<path fill="#EEEED6" d="M247.278,3.875c-2.898-2.222-6.705-3.336-11.418-3.336c-4.56,0-8.191,1.158-10.884,3.471
				c-2.535,2.184-3.802,4.976-3.802,8.388c0,3.642,1.421,6.562,4.241,8.759c2.832,2.202,6.676,3.305,11.524,3.305
				c4.765,0,8.451-1.145,11.081-3.439c2.402-2.114,3.604-4.863,3.604-8.249C251.624,9.065,250.174,6.102,247.278,3.875z
				 M236.598,23.646c-2.11,0-3.724-1.311-4.849-3.944c-0.877-2.042-1.311-4.464-1.311-7.271c0-3.633,0.633-6.455,1.915-8.452
				c1.125-1.773,2.563-2.662,4.31-2.662c1.863,0,3.322,0.982,4.364,2.947c1.042,1.969,1.565,4.693,1.565,8.202
				c0,3.595-0.523,6.355-1.565,8.284C239.985,22.683,238.506,23.646,236.598,23.646z"/>
			<path fill="#EEEED6" d="M217.875,2.627c-1.662-0.917-4.235-1.377-7.716-1.377h-19.907v0.812h1.078c1.351,0,2.259,0.15,2.73,0.467
				c0.741,0.496,1.11,1.578,1.11,3.268v13.407c0,1.619-0.195,2.646-0.593,3.077c-0.39,0.441-1.473,0.658-3.248,0.658h-1.078v0.776
				h17.75v-0.776c0,0-1.57,0-1.95,0c-1.08,0-1.809-0.18-2.19-0.543c-0.521-0.489-0.776-1.555-0.776-3.192v-4.92h7.073
				c3.167,0,5.713-0.562,7.646-1.684c1.93-1.123,2.896-2.729,2.896-4.819C220.699,5.378,219.753,3.663,217.875,2.627z
				 M208.001,13.547h-4.916V5.835c0-1.712,0.301-2.801,0.907-3.271c0.424-0.334,1.37-0.502,2.834-0.502h1.175
				c3.057,0,4.581,1.857,4.581,5.586c0,2.043-0.381,3.533-1.143,4.477C210.675,13.071,209.525,13.547,208.001,13.547z"/>
			<path fill="#EEEED6" d="M338.794,4.754c-1.414-1.439-3.411-2.438-5.994-2.999c-1.531-0.339-3.348-0.505-5.458-0.505h-17.416
				v0.812h1.146c1.461,0,2.404,0.168,2.833,0.502c0.581,0.47,0.875,1.543,0.875,3.232l0.064,13.407c0,1.638-0.304,2.634-0.906,3.155
				c-0.454,0.381-1.405,0.58-2.866,0.58h-0.712c-1.744,0-2.979-0.459-3.701-1.379c-0.182-0.227-0.605-0.942-1.277-2.155
				L294.84,0.643h-0.808l-9.332,16.505c-1.188,2.067-2.293,3.544-3.304,4.448c-1.009,0.896-2.099,1.344-3.262,1.344v0.776h12.256
				v-0.776c-1.006-0.092-1.773-0.237-2.288-0.437c-1.548-0.652-2.406-1.92-2.564-3.807c-0.018-0.134,0-0.329,0.069-0.587
				c0.071-0.255,0.126-0.466,0.171-0.625h9.331l1.484,2.693c0.27,0.588,0.399,1.059,0.399,1.418c0,0.54-0.266,0.919-0.806,1.14
				c-0.337,0.138-0.786,0.204-1.346,0.204h-1.717v0.776h33.646c5.188,0,8.996-0.966,11.419-2.893
				c2.294-1.82,3.434-4.556,3.434-8.223C341.622,9.281,340.679,6.661,338.794,4.754z M286.017,16.712l4.272-7.847l4.311,7.847
				H286.017z M325.691,22.939h-2.931V2.062h2.667c2.441,0,4.26,0.521,5.452,1.579c0.964,0.85,1.584,2.155,1.855,3.905
				c0.131,0.855,0.196,2.485,0.196,4.884c0,3.438-0.424,5.94-1.274,7.515C330.576,21.942,328.591,22.939,325.691,22.939z"/>
			<path fill="#EEEED6" d="M276.207,11.39c-1.727-1.058-3.911-1.786-6.563-2.191l-5.765-0.907c-2.622-0.409-4.061-0.643-4.311-0.709
				c-1.748-0.516-2.624-1.447-2.624-2.798c0-1.079,0.546-1.927,1.631-2.544c1.094-0.616,2.547-0.924,4.364-0.924
				c2.741,0,5.271,0.674,7.578,2.021c2.319,1.35,4.333,3.348,6.062,5.998h0.711v-8.46h-0.539l-4.009,3.064
				c-3.006-2.267-6.241-3.401-9.696-3.401c-2.992,0-5.491,0.757-7.5,2.264c-2.012,1.498-3.014,3.391-3.014,5.656
				c0,3.185,1.986,5.431,5.961,6.734c0.742,0.252,4.437,0.909,11.085,1.984c3.951,0.651,5.922,1.766,5.922,3.34
				c0,1.008-0.531,1.773-1.598,2.288c-1.062,0.52-2.563,0.776-4.497,0.776c-2.959,0-5.76-0.717-8.385-2.153
				c-2.899-1.573-5.226-3.839-6.977-6.808h-0.802v9.264h0.802l4.417-3.267c0.378,0.335,0.775,0.674,1.181,1.006
				c1.059,0.769,2.257,1.391,3.608,1.854c1.857,0.653,3.938,0.983,6.228,0.983c3.236,0,5.744-0.683,7.544-2.043
				c1.795-1.356,2.695-3.184,2.695-5.475C279.715,14.656,278.543,12.808,276.207,11.39z"/>
		</g>
	</g>
	<g>
		<g>
			<path fill="#010202" d="M125.528,12.469c1.607-0.71,2.719-1.473,3.35-2.288c0.632-0.809,0.943-1.825,0.943-3.042
				c0-1.509-0.465-2.748-1.404-3.708c-1.56-1.603-4.332-2.408-8.316-2.408h-19.384v0.825l1.238,0.07c1.49,0,2.44,0.15,2.854,0.449
				c0.615,0.455,0.925,1.557,0.925,3.296v13.679c0,1.553-0.184,2.55-0.551,2.984c-0.455,0.554-1.577,0.826-3.364,0.826h-1.102v0.793
				h19.825c4.059,0,6.851-0.662,8.386-1.994c1.013-0.868,1.515-2.129,1.515-3.776C130.444,15.396,128.806,13.495,125.528,12.469z
				 M127.382,17.347h-4.947c-0.069-0.297-0.123-0.584-0.153-0.856c-0.034-0.276-0.078-0.479-0.122-0.623h4.775L127.382,17.347z
				 M126.628,15.288h-4.674c-0.32-0.623-0.641-1.114-0.961-1.481h3.916C125.711,14.264,126.286,14.757,126.628,15.288z
				 M122.094,12.776l1.577,0.446h-3.33l-1.445-0.722l1.375-0.756h3.23c-0.963,0.386-1.957,0.644-2.989,0.756L122.094,12.776z
				 M125.357,10.609c-0.139,0.136-0.346,0.319-0.621,0.554h-3.817c0.185-0.256,0.324-0.447,0.415-0.589
				c0.253-0.389,0.413-0.684,0.483-0.896h4.396C126.077,9.891,125.789,10.199,125.357,10.609z M126.492,9.102h-4.505l0.241-1.48
				h4.674C126.834,8.122,126.696,8.619,126.492,9.102z M126.902,7.041h-4.638l-0.137-1.482h4.471L126.902,7.041z M125.974,4.355
				c0.094,0.136,0.218,0.344,0.378,0.616h-4.325c-0.163-0.48-0.402-0.97-0.724-1.476h3.987
				C125.47,3.658,125.699,3.943,125.974,4.355z M121.545,1.918c1.259,0.184,2.278,0.512,3.056,0.993h-3.747
				c-0.112-0.136-0.375-0.349-0.789-0.652c-0.137-0.094-0.334-0.229-0.585-0.411L121.545,1.918z M113.808,1.848h1.409
				c2.362,0,4.023,0.458,4.985,1.375c0.78,0.756,1.17,1.984,1.17,3.677c0,2.202-0.55,3.688-1.651,4.468
				c-0.66,0.481-1.732,0.721-3.196,0.721c-0.206,0-0.488,0-0.861,0h-1.856V1.848z M111.199,23.152h-5.742
				c0.184-0.206,0.314-0.353,0.38-0.446c0.273-0.317,0.435-0.54,0.482-0.655h4.879V23.152z M111.199,21.472h-4.705
				c0.043-0.164,0.07-0.382,0.08-0.66c0.012-0.269,0.033-0.544,0.053-0.817h4.572V21.472z M111.199,19.404h-4.572v-1.469h4.572
				V19.404z M111.199,17.347h-4.572v-1.479h4.572V17.347z M111.199,15.288h-4.572v-1.481h4.572V15.288z M111.199,13.223h-4.572
				v-1.478h4.572V13.223z M111.199,11.163h-4.572V9.678h4.572V11.163z M111.199,9.102h-4.572v-1.48h4.572V9.102z M111.199,7.041
				h-4.572V5.559h4.572V7.041z M111.199,4.972h-4.572l-0.133-1.476h4.705V4.972z M111.199,2.911h-4.879
				c-0.229-0.431-0.514-0.786-0.862-1.063h5.742V2.911z M113.808,23.152V12.881l1.483,0.066c2.405,0,4.006,0.289,4.811,0.859
				c0.935,0.664,1.405,2.041,1.405,4.129c0,1.898-0.428,3.239-1.29,4.035c-0.856,0.784-2.213,1.182-4.071,1.182H113.808z
				 M123.174,22.964c-0.61,0.13-1.541,0.188-2.801,0.188h-0.481l1.24-1.102h4.086C124.464,22.536,123.782,22.842,123.174,22.964z
				 M125.974,21.472h-4.429l0.648-1.478h4.881C126.688,20.703,126.32,21.197,125.974,21.472z M127.281,19.404h-4.946l0.133-1.469
				h4.95L127.281,19.404z"/>
			<path fill="#010202" d="M25.874,16.039c-1.187,2.457-2.721,4.336-4.605,5.655c-1.877,1.319-3.925,1.975-6.148,1.975
				c-2.134,0-3.69-1.122-4.672-3.368c-0.831-1.852-1.237-4.443-1.237-7.766c0-7.374,1.912-11.067,5.735-11.067
				c2.476,0,4.665,0.979,6.563,2.923c1.419,1.445,2.715,3.493,3.885,6.154l0.549-0.143l-0.447-9.554h-0.617
				c-0.595,0.598-1.067,0.999-1.404,1.204c-0.48,0.298-1.013,0.446-1.589,0.446c-0.087,0-0.227-0.012-0.409-0.032
				c-0.37,0-1.478-0.361-3.351-1.082c-1.868-0.722-3.488-1.084-4.866-1.084c-3.914,0-7.104,1.128-9.568,3.386
				C1.23,5.943,0,8.836,0,12.367c0,3.55,1.317,6.493,3.949,8.83c2.636,2.333,5.903,3.502,9.797,3.502
				c2.634,0,5.026-0.662,7.182-1.993c1.557-0.962,2.931-2.24,4.125-3.846c0.668-0.873,1.152-1.697,1.478-2.478L25.874,16.039z
				 M23.571,5.836L22.27,4.084h1.205L23.571,5.836z M21.858,2.98c0.842-0.134,1.361-0.248,1.542-0.34l0.035,0.855h-1.753
				l-0.481-0.408C21.496,3.041,21.717,3.006,21.858,2.98z M7.42,2.125c1.192-0.527,2.359-0.846,3.508-0.961
				c-0.348,0.272-0.687,0.582-1.032,0.924C9.692,2.297,9.424,2.57,9.107,2.911H5.945C6.539,2.546,7.031,2.287,7.42,2.125z
				 M5.119,3.496h3.507C8.19,4.117,7.881,4.607,7.691,4.972H3.572L5.119,3.496z M3.092,5.559H7.42L6.837,7.041H2.167L3.092,5.559z
				 M1.888,7.621h4.743l-0.342,1.48H1.377L1.888,7.621z M1.203,9.678h4.984l-0.208,1.485H0.963L1.203,9.678z M0.928,11.745h5.017
				v1.478H0.928V11.745z M0.999,13.807h4.946l0.137,1.481H1.271L0.999,13.807z M1.442,15.867h4.745l0.344,1.479H2.059L1.442,15.867z
				 M3.403,19.404l-1.035-1.469h4.334l0.583,1.469H3.403z M3.886,19.994h3.64l0.86,1.478H5.601L3.886,19.994z M6.46,22.051h2.335
				l1.341,1.479C8.763,23.233,7.533,22.74,6.46,22.051z"/>
			<path fill="#010202" d="M177.036,3.703c-2.951-2.267-6.834-3.402-11.644-3.402c-4.652,0-8.355,1.184-11.103,3.543
				c-2.584,2.22-3.882,5.074-3.882,8.557c0,3.71,1.444,6.685,4.329,8.93c2.891,2.245,6.808,3.369,11.755,3.369
				c4.855,0,8.625-1.169,11.302-3.502c2.453-2.152,3.68-4.967,3.68-8.421C181.472,8.998,179.997,5.974,177.036,3.703z
				 M177.276,7.621l0.585,1.48h-4.945l-0.274-1.48H177.276z M176.969,7.041h-4.465l-0.413-1.482h3.984L176.969,7.041z
				 M174.703,4.049c0.481,0.41,0.788,0.721,0.926,0.923h-3.78l-0.723-1.476h2.959C174.36,3.75,174.567,3.93,174.703,4.049z
				 M170.543,1.607c0.824,0.274,1.431,0.524,1.818,0.76l0.932,0.544h-2.51l-1.407-1.648C169.876,1.406,170.27,1.522,170.543,1.607z
				 M159.307,1.812c0.481-0.161,1.292-0.328,2.441-0.517l-1.617,1.615h-3.094C158.073,2.342,158.826,1.974,159.307,1.812z
				 M156.148,3.496h3.537l-0.998,1.476h-4.263L156.148,3.496z M153.912,5.559h4.434l-0.652,1.482h-4.849L153.912,5.559z
				 M152.537,7.621h4.953l-0.416,1.48h-5.192L152.537,7.621z M151.542,10.439c0.043-0.32,0.1-0.572,0.172-0.762h5.254l-0.204,1.485
				h-5.327C151.462,11.003,151.496,10.762,151.542,10.439z M151.367,11.745h5.365v1.478h-5.327L151.367,11.745z M151.438,13.807
				h5.357l0.212,1.481h-5.226L151.438,13.807z M151.955,15.867h5.154l0.408,1.479h-4.877L151.955,15.867z M152.951,17.936h4.743
				l0.652,1.469h-4.26L152.951,17.936z M154.598,19.994h4.054l0.966,1.478h-3.2L154.598,19.994z M157.351,22.051h2.71l1.513,1.479
				C160.061,23.254,158.652,22.765,157.351,22.051z M166.147,23.874c-2.154,0-3.802-1.338-4.946-4.023
				c-0.9-2.075-1.346-4.554-1.346-7.42c0-3.712,0.653-6.582,1.96-8.624c1.147-1.807,2.611-2.719,4.397-2.719
				c1.905,0,3.387,1.009,4.452,3.014c1.067,2.004,1.6,4.788,1.6,8.367c0,3.664-0.532,6.48-1.6,8.454
				C169.6,22.892,168.09,23.874,166.147,23.874z M171.313,23.445c-0.58,0.264-1.254,0.398-2.008,0.398
				c0.714-0.575,1.26-1.17,1.654-1.793h2.644C172.666,22.72,171.901,23.182,171.313,23.445z M174.326,21.472h-3.024l0.683-1.478
				h3.784L174.326,21.472z M176.215,19.404h-4.021l0.242-0.722c0.043-0.062,0.105-0.315,0.167-0.747h4.539L176.215,19.404z
				 M177.417,17.347h-4.671l0.242-1.479h4.985L177.417,17.347z M178.141,15.288h-5.092l0.077-1.481h5.253L178.141,15.288z
				 M178.451,13.223h-5.326v-1.478h5.289L178.451,13.223z M173.087,11.163l-0.1-1.485h5.045l0.31,1.485H173.087z"/>
			<path fill="#010202" d="M131.373,1.848h1.094c1.472,0,2.489,0.237,3.062,0.705c0.569,0.467,0.857,1.504,0.857,3.11v13.679
				c0,1.553-0.182,2.55-0.549,2.984c-0.483,0.554-1.603,0.826-3.371,0.826h-1.094v0.793h18.106v-0.793c0,0-1.604,0-1.991,0
				c-1.101,0-1.847-0.183-2.237-0.548c-0.526-0.507-0.79-1.594-0.79-3.263V5.663c0-1.672,0.323-2.763,0.964-3.263
				c0.457-0.371,1.443-0.553,2.955-0.553h1.099V1.022h-18.106V1.848z M136.111,23.152c0.117-0.091,0.197-0.16,0.241-0.206
				c0.277-0.298,0.482-0.597,0.622-0.896h4.979c0.207,0.512,0.403,0.875,0.584,1.102H136.111z M137.317,17.347v-1.479h4.536v1.479
				H137.317z M141.853,17.936v1.469h-4.536v-1.469H141.853z M137.317,15.288v-1.481h4.536v1.481H137.317z M137.317,13.223v-1.478
				h4.536v1.478H137.317z M137.317,11.163V9.678h4.536v1.485H137.317z M137.317,9.102v-1.48h4.536v1.48H137.317z M137.317,7.041
				V5.559h4.536v1.482H137.317z M137.282,4.972l-0.141-1.476h4.744l-0.032,1.476H137.282z M137.266,20.661
				c0.009-0.212,0.016-0.439,0.016-0.667h4.571l0.032,1.478h-4.744C137.215,21.147,137.248,20.878,137.266,20.661z M142.537,1.848
				c-0.16,0.138-0.31,0.369-0.444,0.687c-0.028,0.093-0.069,0.215-0.14,0.377h-4.979c-0.233-0.431-0.518-0.786-0.863-1.063H142.537z
				"/>
			<path fill="#010202" d="M79.652,15.318L71.029,1.022H57.697v0.825h0.963c2.059,0,3.547,0.661,4.462,1.996v13.129
				c0,4.032-1.766,6.094-5.308,6.176c-1.669-0.037-2.85-0.502-3.55-1.404c-0.189-0.225-0.623-0.958-1.311-2.2L42.2,0.405h-0.825
				l-9.519,16.838c-1.216,2.108-2.339,3.618-3.369,4.534c-1.028,0.918-2.14,1.375-3.336,1.375v0.793h12.51v-0.793
				c-1.033-0.091-1.809-0.238-2.333-0.446c-1.583-0.66-2.456-1.959-2.614-3.882c-0.025-0.142,0-0.336,0.065-0.604
				c0.069-0.258,0.134-0.475,0.173-0.631h9.52l1.514,2.745c0.277,0.597,0.411,1.075,0.411,1.442c0,0.549-0.273,0.942-0.826,1.169
				c-0.336,0.14-0.803,0.206-1.371,0.206h-1.755v0.793h28.796v-0.793c-3.387,0-5.085-2.062-5.085-6.18V5.454l11.271,18.491h0.654
				L86.903,3.259v16.285c0,1.446-0.168,2.375-0.515,2.782c-0.458,0.554-1.593,0.826-3.4,0.826h-1.1v0.793h18.142v-0.793H98.93
				c-1.393,0-2.356-0.206-2.884-0.616c-0.688-0.53-1.031-1.59-1.031-3.194V5.526c0-1.375,0.249-2.332,0.737-2.869
				c0.495-0.54,1.553-0.81,3.178-0.81h1.101V1.022H87.042L79.652,15.318z M30.616,20.606c0.09-0.133,0.243-0.339,0.454-0.612
				l-0.073,1.478h-1.132C30.026,21.355,30.278,21.067,30.616,20.606z M27.735,23.152l1.542-1.102h1.859
				c0.093,0.299,0.26,0.669,0.514,1.102H27.735z M50.855,21.472h-5.601c-0.022-0.164-0.161-0.54-0.411-1.137
				c-0.019-0.096-0.07-0.209-0.14-0.341h5.333L50.855,21.472z M46.219,13.223h-5.293l-0.821-1.478h5.253L46.219,13.223z
				 M45.052,11.163h-5.26l-0.824-1.485h5.255L45.052,11.163z M40.654,3.361l0.925,1.61h-1.855L40.654,3.361z M39.385,5.559h2.501
				l0.825,1.482h-4.19L39.385,5.559z M38.181,7.621h4.875l0.825,1.48h-5.22l-0.655-1.14L38.181,7.621z M33.194,16.793l4.363-8.002
				l4.4,8.002H33.194z M41.272,13.807h5.257l0.858,1.481h-5.289L41.272,13.807z M42.404,15.867h5.29l0.825,1.479h-5.285
				L42.404,15.867z M44.362,19.404l-0.821-1.469h5.323l0.828,1.469H44.362z M44.571,23.152c0.347-0.388,0.546-0.753,0.617-1.102
				h5.981l0.621,1.102H44.571z M63.02,2.467c-0.34-0.302-0.652-0.502-0.923-0.619h5.941l0.653,1.063h-5.19
				C63.296,2.709,63.136,2.562,63.02,2.467z M63.264,20.474c0.022,0.114,0.057,0.321,0.104,0.616c0.042,0.3,0.103,0.539,0.172,0.721
				H62.47L63.264,20.474z M64.396,23.152h-3.436l0.961-0.753h1.888L64.396,23.152z M63.984,3.496h5.05l0.928,1.476h-5.048
				L63.984,3.496z M65.253,5.559h5.053L71.2,7.041h-5.052L65.253,5.559z M66.528,7.621h5.016l0.894,1.48H67.42L66.528,7.621z
				 M67.766,9.678h5.053l0.896,1.485h-5.056L67.766,9.678z M69,11.745h5.052l0.89,1.478H69.93L69,11.745z M70.274,13.807h5.017
				l0.926,1.481h-5.051L70.274,13.807z M71.508,15.867h5.053l0.896,1.479h-5.054L71.508,15.867z M75.734,22.847l-0.479-0.796h0.929
				L75.734,22.847z M76.458,21.472h-1.543l-0.896-1.478h3.232L76.458,21.472z M77.555,19.404h-3.881l-0.923-1.469h5.046l0.274,0.473
				L77.555,19.404z M87.831,1.848h5.228c-0.3,0.393-0.482,0.742-0.553,1.063h-4.675V1.848z M87.831,3.496h4.572l-0.035,1.476h-4.537
				V3.496z M87.831,5.559h4.537v1.482h-4.537V5.559z M87.831,7.621h4.537v1.48h-4.537V7.621z M87.831,9.678h4.537v1.485h-4.537
				V9.678z M87.831,11.745h4.537v1.478h-4.537V11.745z M87.831,13.807h4.537v1.481h-4.537V13.807z M87.831,15.867h4.537v1.479
				h-4.537V15.867z M87.831,17.936h4.537v1.469h-4.537V17.936z M87.831,19.994h4.537l0.035,1.478h-4.744L87.831,19.994z
				 M92.506,22.051l0.553,1.102h-6.431c0.187-0.183,0.31-0.319,0.383-0.412c0.271-0.319,0.432-0.548,0.476-0.689H92.506z"/>
		</g>
		<g>
			<path fill="#010202" d="M396.497,11.39c-1.732-1.058-3.92-1.786-6.572-2.191l-5.761-0.907c-2.625-0.409-4.062-0.643-4.311-0.709
				c-1.753-0.516-2.626-1.447-2.626-2.798c0-1.079,0.548-1.927,1.634-2.544c1.092-0.616,2.545-0.924,4.361-0.924
				c2.744,0,5.268,0.674,7.577,2.021c2.315,1.35,4.335,3.348,6.065,5.998h0.707v-8.46h-0.538l-4.01,3.064
				c-3.007-2.267-6.243-3.401-9.699-3.401c-2.986,0-5.484,0.757-7.495,2.264c-2.013,1.498-3.016,3.391-3.016,5.656
				c0,3.185,1.988,5.431,5.965,6.734c0.738,0.252,4.437,0.909,11.084,1.984c3.953,0.651,5.924,1.766,5.924,3.34
				c0,1.008-0.535,1.773-1.599,2.288c-1.065,0.52-2.567,0.776-4.497,0.776c-2.965,0-5.757-0.717-8.39-2.153
				c-2.895-1.573-5.217-3.839-6.972-6.808h-0.811v8.318h-0.269c-1.75,0-2.983-0.459-3.7-1.379c-0.183-0.227-0.612-0.942-1.285-2.155
				L357.727,0.643h-0.807l-9.332,16.505c-1.191,2.067-2.294,3.544-3.302,4.448c-1.013,0.896-2.098,1.344-3.27,1.344v0.776h12.262
				v-0.776c-1.009-0.092-1.776-0.237-2.29-0.437c-1.552-0.652-2.406-1.92-2.562-3.807c-0.02-0.134,0-0.329,0.068-0.587
				c0.068-0.255,0.123-0.466,0.167-0.625h9.333l1.48,2.693c0.271,0.588,0.405,1.059,0.405,1.418c0,0.54-0.268,0.919-0.809,1.14
				c-0.339,0.138-0.785,0.204-1.346,0.204h-1.717v0.776h17.51v0.169h0.811l4.414-3.267c0.378,0.335,0.773,0.674,1.179,1.006
				c1.053,0.769,2.258,1.391,3.604,1.854c1.861,0.653,3.945,0.983,6.233,0.983c3.234,0,5.748-0.683,7.543-2.043
				c1.798-1.356,2.697-3.184,2.697-5.475C400,14.656,398.83,12.808,396.497,11.39z M395.586,2.764v1.344h-1.647L395.586,2.764z
				 M395.586,4.688v1.71l-1.682-1.71H395.586z M346.371,20.446c0.094-0.134,0.241-0.332,0.441-0.604l-0.068,1.45h-1.112
				C345.789,21.177,346.034,20.896,346.371,20.446z M343.544,22.939l1.519-1.078h1.818c0.085,0.295,0.254,0.653,0.502,1.078H343.544
				z M366.216,21.292h-5.494c-0.02-0.157-0.158-0.526-0.405-1.114c-0.02-0.084-0.064-0.198-0.137-0.336h5.224L366.216,21.292z
				 M361.667,13.205h-5.188l-0.813-1.447h5.16L361.667,13.205z M360.519,11.182h-5.152l-0.808-1.444h5.151L360.519,11.182z
				 M356.211,3.538l0.907,1.583H355.3L356.211,3.538z M354.963,5.693h2.458l0.809,1.449h-4.106L354.963,5.693z M353.785,7.721h4.783
				l0.806,1.445h-5.121l-0.639-1.115L353.785,7.721z M348.899,16.712l4.275-7.847l4.313,7.847H348.899z M356.816,13.779h5.151
				l0.846,1.446h-5.188L356.816,13.779z M357.925,15.803h5.189l0.808,1.448h-5.189L357.925,15.803z M359.843,19.272l-0.803-1.447
				h5.218l0.812,1.447H359.843z M360.05,22.939c0.336-0.379,0.541-0.741,0.604-1.078h5.862l0.608,1.078H360.05z M374.196,23.144
				v-2.056h2.697L374.196,23.144z M374.196,20.518v-2.832c0.878,0.989,1.496,1.672,1.872,2.059c0.367,0.382,0.666,0.639,0.89,0.773
				H374.196z M375.476,3.825c0.226-0.19,0.55-0.396,0.979-0.624c-0.429,0.562-0.69,0.976-0.793,1.232
				c-0.099,0.256-0.13,0.489-0.084,0.688h-1.111C374.91,4.449,375.253,4.018,375.476,3.825z M374.163,5.693h1.312
				c0.048,0.251,0.087,0.507,0.115,0.776c0.036,0.27,0.076,0.499,0.121,0.673h-2.022L374.163,5.693z M373.623,7.721h2.358
				c0.271,0.425,0.503,0.722,0.71,0.905l0.938,0.54h-4.006V7.721z M374.265,11.182l-0.54-1.444h5.46
				c0.917,0.319,2.646,0.651,5.185,1.009c0.852,0.11,2.046,0.262,3.567,0.436H374.265z M374.601,11.758h16.669l2.229,0.64
				c0.562,0.182,1.154,0.452,1.781,0.808H376.15L374.601,11.758z M379.451,14.558c-0.543-0.164-1.304-0.421-2.289-0.778h18.967
				l1.311,1.446h-14.787C382.181,15.295,381.114,15.066,379.451,14.558z M389.423,16.271c-0.679-0.112-1.643-0.269-2.903-0.468
				h11.188c0.112,0.182,0.18,0.321,0.205,0.439c0.11,0.289,0.174,0.628,0.2,1.009h-4.411
				C392.801,16.956,391.373,16.633,389.423,16.271z M397.203,21.363c-0.205,0.242-0.561,0.553-1.074,0.942
				c0.217-0.249,0.38-0.86,0.471-1.823c0-0.158,0.01-0.368,0.029-0.641h1.215C397.708,20.491,397.489,21,397.203,21.363z
				 M398.144,17.955l-0.128,1.317h-1.619c-0.296-0.478-0.664-0.887-1.117-1.251c-0.059-0.041-0.166-0.111-0.299-0.196h3.163V17.955z
				"/>
			<path fill="#010202" d="M247.278,3.875c-2.898-2.222-6.705-3.336-11.418-3.336c-4.56,0-8.191,1.158-10.884,3.471
				c-2.535,2.184-3.802,4.976-3.802,8.388c0,3.642,1.421,6.562,4.241,8.759c2.832,2.202,6.676,3.305,11.524,3.305
				c4.765,0,8.451-1.145,11.081-3.439c2.402-2.114,3.604-4.863,3.604-8.249C251.624,9.065,250.174,6.102,247.278,3.875z
				 M247.514,7.721l0.57,1.445h-4.851l-0.266-1.445H247.514z M247.208,7.143h-4.377l-0.405-1.449h3.905L247.208,7.143z
				 M244.989,4.217c0.468,0.4,0.77,0.706,0.909,0.904h-3.708l-0.705-1.445h2.895C244.65,3.92,244.852,4.103,244.989,4.217z
				 M240.911,1.822c0.813,0.268,1.404,0.515,1.783,0.742l0.909,0.538h-2.459l-1.375-1.616
				C240.259,1.617,240.643,1.727,240.911,1.822z M229.9,2.025c0.467-0.16,1.261-0.328,2.386-0.502l-1.583,1.579h-3.034
				C228.688,2.544,229.425,2.177,229.9,2.025z M226.797,3.676h3.47l-0.978,1.445h-4.173L226.797,3.676z M224.604,5.693h4.346
				l-0.637,1.449h-4.752L224.604,5.693z M223.261,7.721h4.852l-0.406,1.445h-5.086L223.261,7.721z M222.28,10.482
				c0.048-0.32,0.106-0.568,0.17-0.745h5.16l-0.203,1.444h-5.224C222.202,11.027,222.241,10.796,222.28,10.482z M222.112,11.758
				h5.256v1.447h-5.219L222.112,11.758z M222.183,13.779h5.255l0.201,1.446h-5.12L222.183,13.779z M222.685,15.803h5.057
				l0.407,1.448h-4.788L222.685,15.803z M223.67,17.825h4.643l0.637,1.447h-4.175L223.67,17.825z M225.286,19.842h3.968l0.943,1.45
				h-3.125L225.286,19.842z M227.977,21.861h2.66l1.482,1.455C230.637,23.043,229.253,22.561,227.977,21.861z M236.598,23.646
				c-2.11,0-3.724-1.311-4.849-3.944c-0.877-2.042-1.311-4.464-1.311-7.271c0-3.633,0.633-6.455,1.915-8.452
				c1.125-1.773,2.563-2.662,4.31-2.662c1.863,0,3.322,0.982,4.364,2.947c1.042,1.969,1.565,4.693,1.565,8.202
				c0,3.595-0.523,6.355-1.565,8.284C239.985,22.683,238.506,23.646,236.598,23.646z M241.674,23.229
				c-0.575,0.26-1.236,0.384-1.975,0.384c0.697-0.561,1.236-1.147,1.614-1.751h2.598C242.987,22.515,242.243,22.972,241.674,23.229z
				 M244.62,21.292h-2.97l0.675-1.45h3.709L244.62,21.292z M246.467,19.272h-3.942l0.237-0.71c0.044-0.068,0.101-0.312,0.167-0.737
				h4.449L246.467,19.272z M247.651,17.251h-4.588l0.237-1.448h4.89L247.651,17.251z M248.356,15.226h-4.984l0.066-1.446h5.154
				L248.356,15.226z M248.655,13.205h-5.217v-1.447h5.185L248.655,13.205z M243.403,11.182l-0.102-1.444h4.954l0.302,1.444H243.403z
				"/>
			<path fill="#010202" d="M217.875,2.627c-1.662-0.917-4.235-1.377-7.716-1.377h-19.907v0.812h1.078c1.351,0,2.259,0.15,2.73,0.467
				c0.741,0.496,1.11,1.578,1.11,3.268v13.407c0,1.619-0.195,2.646-0.593,3.077c-0.39,0.441-1.473,0.658-3.248,0.658h-1.078v0.776
				h17.75v-0.776c0,0-1.57,0-1.95,0c-1.08,0-1.809-0.18-2.19-0.543c-0.521-0.489-0.776-1.555-0.776-3.192v-4.92h7.073
				c3.167,0,5.713-0.562,7.646-1.684c1.93-1.123,2.896-2.729,2.896-4.819C220.699,5.378,219.753,3.663,217.875,2.627z
				 M194.897,22.939c0.114-0.092,0.191-0.154,0.241-0.204c0.266-0.286,0.467-0.579,0.605-0.874h4.881
				c0.202,0.502,0.395,0.858,0.575,1.078H194.897z M196.082,17.251v-1.448h4.443v1.448H196.082z M200.525,17.825v1.447h-4.443
				v-1.447H200.525z M196.082,15.226v-1.446h4.443v1.446H196.082z M196.082,13.205v-1.447h4.443v1.447H196.082z M196.082,11.182
				V9.737h4.443v1.444H196.082z M196.082,9.166V7.721h4.443v1.445H196.082z M196.082,7.143V5.693h4.443v1.449H196.082z
				 M196.049,5.121l-0.135-1.445h4.647l-0.036,1.445H196.049z M196.026,20.498c0.014-0.205,0.022-0.433,0.022-0.656h4.477
				l0.036,1.45h-4.647C195.975,20.976,196.017,20.718,196.026,20.498z M200.76,2.73c-0.02,0.088-0.064,0.214-0.136,0.372h-4.881
				c-0.229-0.427-0.508-0.777-0.846-1.04h6.302C201.044,2.191,200.899,2.419,200.76,2.73z M216.999,4.754
				c0.037,0.087,0.089,0.214,0.129,0.367h-3.941l-0.605-1.445h3.375C216.467,4.08,216.812,4.436,216.999,4.754z M212.015,2.23
				c1.658,0.288,2.724,0.582,3.197,0.872h-3.028l-1.287-1.04C211.37,2.122,211.741,2.177,212.015,2.23z M208.001,13.547h-4.916
				V5.835c0-1.712,0.301-2.801,0.907-3.271c0.424-0.334,1.37-0.502,2.834-0.502h1.175c3.057,0,4.581,1.857,4.581,5.586
				c0,2.043-0.381,3.533-1.143,4.477C210.675,13.071,209.525,13.547,208.001,13.547z M212.112,13.404
				c-0.314,0.046-0.721,0.091-1.215,0.143c0.724-0.493,1.293-1.093,1.718-1.789h3.509C215.289,12.523,213.951,13.071,212.112,13.404
				z M216.625,11.182h-3.703c0.202-0.443,0.336-0.927,0.403-1.444h4.107C217.231,10.3,216.961,10.781,216.625,11.182z
				 M217.604,9.166h-4.209l0.067-1.445h4.278L217.604,9.166z M213.463,7.143l-0.169-1.449h4.109l0.338,1.449H213.463z"/>
			<path fill="#010202" d="M338.794,4.754c-1.414-1.439-3.411-2.438-5.994-2.999c-1.531-0.339-3.348-0.505-5.458-0.505h-17.416
				v0.812h1.146c1.461,0,2.404,0.168,2.833,0.502c0.581,0.47,0.875,1.543,0.875,3.232l0.064,13.407c0,1.638-0.304,2.634-0.906,3.155
				c-0.454,0.381-1.405,0.58-2.866,0.58h-0.712c-1.744,0-2.979-0.459-3.701-1.379c-0.182-0.227-0.605-0.942-1.277-2.155
				L294.84,0.643h-0.808l-9.332,16.505c-1.188,2.067-2.293,3.544-3.304,4.448c-1.009,0.896-2.099,1.344-3.262,1.344v0.776h12.256
				v-0.776c-1.006-0.092-1.773-0.237-2.288-0.437c-1.548-0.652-2.406-1.92-2.564-3.807c-0.018-0.134,0-0.329,0.069-0.587
				c0.071-0.255,0.126-0.466,0.171-0.625h9.331l1.484,2.693c0.27,0.588,0.399,1.059,0.399,1.418c0,0.54-0.266,0.919-0.806,1.14
				c-0.337,0.138-0.786,0.204-1.346,0.204h-1.717v0.776h33.646c5.188,0,8.996-0.966,11.419-2.893
				c2.294-1.82,3.434-4.556,3.434-8.223C341.622,9.281,340.679,6.661,338.794,4.754z M283.485,20.446
				c0.093-0.134,0.234-0.332,0.437-0.604l-0.058,1.45h-1.118C282.901,21.177,283.152,20.896,283.485,20.446z M280.658,22.939
				l1.517-1.078h1.818c0.088,0.295,0.258,0.653,0.501,1.078H280.658z M303.325,21.292h-5.486c-0.026-0.157-0.164-0.526-0.407-1.114
				c-0.025-0.084-0.07-0.198-0.13-0.336h5.215L303.325,21.292z M298.777,13.205h-5.188l-0.803-1.447h5.152L298.777,13.205z
				 M297.632,11.182h-5.153l-0.806-1.444h5.148L297.632,11.182z M293.325,3.538l0.907,1.583h-1.816L293.325,3.538z M292.076,5.693
				h2.46l0.808,1.449h-4.107L292.076,5.693z M290.898,7.721h4.789l0.8,1.445h-5.119l-0.643-1.115L290.898,7.721z M286.017,16.712
				l4.272-7.847l4.311,7.847H286.017z M293.929,13.779h5.158l0.838,1.446h-5.188L293.929,13.779z M295.04,15.803h5.184l0.811,1.448
				h-5.186L295.04,15.803z M296.96,19.272l-0.808-1.447h5.22l0.811,1.447H296.96z M297.16,22.939
				c0.341-0.379,0.539-0.741,0.608-1.078h5.858l0.61,1.078H297.16z M338.427,11.182h-4.65l-0.067-1.444h4.412L338.427,11.182z
				 M337.952,9.166h-4.311l-0.171-1.445h3.941L337.952,9.166z M336.81,6.57c0.063,0.134,0.167,0.324,0.299,0.572h-3.769l-0.37-1.449
				h3.231C336.38,5.873,336.583,6.163,336.81,6.57z M335.766,5.121h-2.993l-0.846-1.445h2.353L335.766,5.121z M333.47,3.103h-2.052
				c-0.517-0.497-1.023-0.841-1.511-1.04C331.338,2.234,332.534,2.584,333.47,3.103z M320.203,22.939h-5.629
				c0.115-0.092,0.195-0.154,0.242-0.204c0.266-0.286,0.467-0.579,0.602-0.874h4.785V22.939z M320.203,21.292h-4.616
				c0.064-0.316,0.107-0.574,0.119-0.794c0.014-0.205,0.02-0.433,0.02-0.656h4.477V21.292z M320.203,19.272h-4.446v-1.447h4.446
				V19.272z M320.203,17.251h-4.446v-1.448h4.446V17.251z M320.203,15.226h-4.446v-1.446h4.446V15.226z M320.203,13.205h-4.446
				v-1.447h4.446V13.205z M320.203,11.182h-4.446V9.737h4.446V11.182z M320.203,9.166h-4.446V7.721h4.446V9.166z M320.203,7.143
				h-4.446V5.693h4.446V7.143z M320.203,5.121h-4.477l-0.033-0.707l-0.105-0.738h4.616V5.121z M320.203,3.103h-4.785
				c-0.224-0.427-0.508-0.777-0.844-1.04h5.629V3.103z M325.691,22.939h-2.931V2.062h2.667c2.441,0,4.26,0.521,5.452,1.579
				c0.964,0.85,1.584,2.155,1.855,3.905c0.131,0.855,0.196,2.485,0.196,4.884c0,3.438-0.424,5.94-1.274,7.515
				C330.576,21.942,328.591,22.939,325.691,22.939z M329.907,22.939c0.331-0.18,0.669-0.416,1.01-0.705
				c0.112-0.091,0.242-0.213,0.396-0.373h2.227C332.418,22.581,331.203,22.939,329.907,22.939z M334.349,21.292h-2.559l0.773-1.45
				h3.301L334.349,21.292z M336.304,19.272h-3.503l0.438-1.447h4.007L336.304,19.272z M337.818,16.542l-0.302,0.709h-4.176
				l0.271-1.448h4.479L337.818,16.542z M338.225,15.226h-4.548l0.101-1.446h4.681L338.225,15.226z M333.777,13.205l0.033-1.447
				h4.648l0.032,1.447H333.777z"/>
			<path fill="#010202" d="M276.207,11.39c-1.727-1.058-3.911-1.786-6.563-2.191l-5.765-0.907c-2.622-0.409-4.061-0.643-4.311-0.709
				c-1.748-0.516-2.624-1.447-2.624-2.798c0-1.079,0.546-1.927,1.631-2.544c1.094-0.616,2.547-0.924,4.364-0.924
				c2.741,0,5.271,0.674,7.578,2.021c2.319,1.35,4.333,3.348,6.062,5.998h0.711v-8.46h-0.539l-4.009,3.064
				c-3.006-2.267-6.241-3.401-9.696-3.401c-2.992,0-5.491,0.757-7.5,2.264c-2.012,1.498-3.014,3.391-3.014,5.656
				c0,3.185,1.986,5.431,5.961,6.734c0.742,0.252,4.437,0.909,11.085,1.984c3.951,0.651,5.922,1.766,5.922,3.34
				c0,1.008-0.531,1.773-1.598,2.288c-1.062,0.52-2.563,0.776-4.497,0.776c-2.959,0-5.76-0.717-8.385-2.153
				c-2.899-1.573-5.226-3.839-6.977-6.808h-0.802v9.264h0.802l4.417-3.267c0.378,0.335,0.775,0.674,1.181,1.006
				c1.059,0.769,2.257,1.391,3.608,1.854c1.857,0.653,3.938,0.983,6.228,0.983c3.236,0,5.744-0.683,7.544-2.043
				c1.795-1.356,2.695-3.184,2.695-5.475C279.715,14.656,278.543,12.808,276.207,11.39z M275.302,2.764v1.344h-1.649L275.302,2.764z
				 M275.302,4.688v1.71l-1.683-1.71H275.302z M253.912,23.144v-2.056h2.699L253.912,23.144z M253.912,20.518v-2.832
				c0.876,0.989,1.5,1.672,1.873,2.059c0.366,0.382,0.662,0.639,0.888,0.773H253.912z M255.196,3.825
				c0.22-0.19,0.544-0.396,0.971-0.624c-0.427,0.562-0.686,0.976-0.792,1.232c-0.096,0.256-0.125,0.489-0.085,0.688h-1.112
				C254.631,4.449,254.973,4.018,255.196,3.825z M253.877,5.693h1.319c0.039,0.251,0.083,0.507,0.114,0.776
				c0.034,0.27,0.074,0.499,0.118,0.673h-2.018L253.877,5.693z M253.34,7.721h2.361c0.264,0.425,0.5,0.722,0.703,0.905l0.95,0.54
				h-4.014V7.721z M253.977,11.182l-0.537-1.444h5.456c0.922,0.319,2.654,0.651,5.187,1.009c0.857,0.11,2.043,0.262,3.568,0.436
				H253.977z M254.317,11.758h16.672l2.219,0.64c0.564,0.182,1.159,0.452,1.788,0.808h-19.13L254.317,11.758z M259.169,14.558
				c-0.541-0.164-1.309-0.421-2.293-0.778h18.963l1.312,1.446h-14.782C261.896,15.295,260.825,15.066,259.169,14.558z
				 M269.139,16.271c-0.673-0.112-1.637-0.269-2.897-0.468h11.185c0.107,0.182,0.174,0.321,0.201,0.439
				c0.11,0.289,0.179,0.628,0.198,1.009h-4.408C272.521,16.956,271.093,16.633,269.139,16.271z M276.915,21.363
				c-0.195,0.242-0.56,0.553-1.076,0.942c0.225-0.249,0.383-0.86,0.473-1.823c0-0.158,0.012-0.368,0.038-0.641h1.21
				C277.426,20.491,277.207,21,276.915,21.363z M277.862,17.955l-0.132,1.317h-1.622c-0.292-0.478-0.662-0.887-1.112-1.251
				c-0.065-0.041-0.165-0.111-0.302-0.196h3.167V17.955z"/>
		</g>
	</g>
</g>
</svg>
